<svg width="959" height="119" viewBox="0 0 959 119" fill="none" xmlns="http://www.w3.org/2000/svg">
<path fill-rule="evenodd" clip-rule="evenodd" d="M67.2399 1.63171L0.34375 24.4705V88.4193L24.4476 80.19V40.7325L67.2399 26.1229V1.63171Z" fill="white"/>
<path fill-rule="evenodd" clip-rule="evenodd" d="M34.4473 46.7324L101.343 23.8936V87.8423L34.4473 110.681V46.7324Z" fill="white"/>
<path d="M141.17 88H162.45C183.065 88 197.315 76.885 197.315 52.28C197.315 27.675 183.065 17.225 161.5 17.225H141.17V88ZM158.175 74.32V30.81H160.455C171.855 30.81 179.93 35.465 179.93 52.28C179.93 69.095 171.855 74.32 160.455 74.32H158.175ZM228.776 88H249.201L270.386 17.225H253.096L245.116 49.525C243.121 57.125 241.696 64.345 239.606 72.135H239.131C237.136 64.345 235.711 57.125 233.621 49.525L225.546 17.225H207.591L228.776 88ZM285.661 88H306.941C327.556 88 341.806 76.885 341.806 52.28C341.806 27.675 327.556 17.225 305.991 17.225H285.661V88ZM302.666 74.32V30.81H304.946C316.346 30.81 324.421 35.465 324.421 52.28C324.421 69.095 316.346 74.32 304.946 74.32H302.666ZM422.504 89.33C431.719 89.33 439.604 85.815 445.589 78.88L436.659 68.24C433.334 71.85 428.869 74.7 423.169 74.7C413.194 74.7 406.734 66.53 406.734 52.47C406.734 38.695 414.239 30.525 423.359 30.525C428.394 30.525 432.099 32.805 435.709 36.035L444.544 25.205C439.699 20.265 432.289 15.99 423.074 15.99C405.119 15.99 389.349 29.48 389.349 53.04C389.349 76.98 404.549 89.33 422.504 89.33ZM488.284 89.33C507.569 89.33 520.679 75.46 520.679 52.28C520.679 29.195 507.569 15.99 488.284 15.99C468.999 15.99 455.889 29.1 455.889 52.28C455.889 75.46 468.999 89.33 488.284 89.33ZM488.284 74.7C478.974 74.7 473.274 65.96 473.274 52.28C473.274 38.6 478.974 30.525 488.284 30.525C497.594 30.525 503.389 38.6 503.389 52.28C503.389 65.96 497.594 74.7 488.284 74.7ZM541.802 88H557.952V64.535C557.952 55.985 556.527 46.295 555.767 38.41H556.242L563.177 53.895L580.657 88H597.947V17.225H581.797V40.69C581.797 49.145 583.222 59.31 584.077 66.815H583.602L576.667 51.14L559.092 17.225H541.802V88ZM636.031 88H653.036V31.38H672.226V17.225H616.936V31.38H636.031V88ZM691.117 88H708.122V63.11H717.052C732.157 63.11 744.697 56.175 744.697 39.55C744.697 22.45 732.157 17.225 717.052 17.225H691.117V88ZM708.122 49.715V30.715H715.722C723.797 30.715 728.167 32.9 728.167 39.55C728.167 46.2 723.797 49.715 715.722 49.715H708.122ZM729.307 88H748.307L725.507 47.625L714.012 58.74L729.307 88ZM795.543 89.33C814.828 89.33 827.938 75.46 827.938 52.28C827.938 29.195 814.828 15.99 795.543 15.99C776.258 15.99 763.148 29.1 763.148 52.28C763.148 75.46 776.258 89.33 795.543 89.33ZM795.543 74.7C786.233 74.7 780.533 65.96 780.533 52.28C780.533 38.6 786.233 30.525 795.543 30.525C804.853 30.525 810.648 38.6 810.648 52.28C810.648 65.96 804.853 74.7 795.543 74.7ZM849.061 88H893.616V73.75H866.066V17.225H849.061V88ZM913.838 88H958.393V73.75H930.843V17.225H913.838V88Z" fill="white"/>
</svg>
